<mxfile host="app.diagrams.net" modified="2024-03-14T19:26:25.482Z" agent="Mozilla/5.0 (X11; Linux x86_64) AppleWebKit/537.36 (KHTML, like Gecko) Chrome/122.0.0.0 Safari/537.36" version="24.0.6" etag="0J_whFbzZi3cyg_eoSqj" type="github">
  <diagram name="Page-1" id="CgJhrXruhMXdcbWlsc2u">
    <mxGraphModel>
      <root>
        <mxCell id="0" />
        <mxCell id="1" parent="0" />
      </root>
    </mxGraphModel>
  </diagram>
</mxfile>
